<?xml version="1.0" encoding="utf-8"?>
<!-- Generator: Adobe Illustrator 23.0.0, SVG Export Plug-In . SVG Version: 6.00 Build 0)  -->
<svg version="1.1" id="レイヤー_1" xmlns="http://www.w3.org/2000/svg" xmlns:xlink="http://www.w3.org/1999/xlink" x="0px"
	 y="0px" viewBox="0 0 588 444" style="enable-background:new 0 0 588 444;" xml:space="preserve">
<style type="text/css">
	.st0{fill:#FFFFFF;}
	.st1{fill:none;stroke:#000000;stroke-miterlimit:10;}
	.st2{fill:none;stroke:#FF0000;stroke-width:5;stroke-miterlimit:10;}
	.st3{fill:#FF0000;}
	.st4{fill:none;stroke:#000000;stroke-width:5;stroke-miterlimit:10;}
	.st5{font-family:'TimesNewRomanPSMT';}
	.st6{font-size:42.1846px;}
	.st7{font-family:'KozGoPr6N-Regular-90ms-RKSJ-H';}
	.st8{font-size:42.4158px;}
</style>
<rect class="st0" width="588" height="444"/>
<rect x="64" y="-121.5" class="st1" width="458.5" height="688"/>
<line class="st1" x1="64" y1="336.08" x2="522.5" y2="336.08"/>
<line class="st1" x1="64" y1="107.92" x2="522.5" y2="107.92"/>
<line class="st1" x1="293.17" y1="-121.5" x2="293.17" y2="566.5"/>
<g>
	<g>
		<line class="st2" x1="248" y1="223.5" x2="331.99" y2="223.5"/>
		<g>
			<path class="st3" d="M297.81,247.5c-0.74-1.16-0.4-2.71,0.77-3.45l32.26-20.55l-32.26-20.55c-1.17-0.74-1.51-2.29-0.77-3.45
				c0.74-1.16,2.3-1.5,3.46-0.77l35.57,22.66c0.72,0.46,1.16,1.25,1.16,2.11s-0.44,1.65-1.16,2.11l-35.57,22.66
				c-0.42,0.26-0.88,0.39-1.34,0.39C299.1,248.66,298.29,248.25,297.81,247.5z"/>
		</g>
	</g>
</g>
<g>
	<g>
		<line class="st4" x1="179.5" y1="153" x2="179.5" y2="69.01"/>
		<g>
			<path d="M203.5,103.19c-1.16,0.74-2.71,0.4-3.45-0.77L179.5,70.15l-20.55,32.26c-0.74,1.17-2.29,1.51-3.45,0.77
				c-1.16-0.74-1.5-2.3-0.77-3.46l22.66-35.57c0.46-0.72,1.25-1.16,2.11-1.16s1.65,0.44,2.11,1.16l22.66,35.57
				c0.26,0.42,0.39,0.88,0.39,1.34C204.66,101.9,204.25,102.71,203.5,103.19z"/>
		</g>
	</g>
</g>
<g>
	<g>
		<line class="st4" x1="411.5" y1="153" x2="411.5" y2="69.01"/>
		<g>
			<path d="M435.5,103.19c-1.16,0.74-2.71,0.4-3.45-0.77L411.5,70.15l-20.55,32.26c-0.74,1.17-2.29,1.51-3.45,0.77
				c-1.16-0.74-1.5-2.3-0.77-3.46l22.66-35.57c0.46-0.72,1.25-1.16,2.11-1.16s1.65,0.44,2.11,1.16l22.66,35.57
				c0.26,0.42,0.39,0.88,0.39,1.34C436.66,101.9,436.25,102.71,435.5,103.19z"/>
		</g>
	</g>
</g>
<g>
	<g>
		<line class="st4" x1="178.5" y1="382" x2="178.5" y2="298.01"/>
		<g>
			<path d="M202.5,332.19c-1.16,0.74-2.71,0.4-3.45-0.77l-20.55-32.26l-20.55,32.26c-0.74,1.17-2.29,1.51-3.45,0.77
				c-1.16-0.74-1.5-2.3-0.77-3.46l22.66-35.57c0.46-0.72,1.25-1.16,2.11-1.16s1.65,0.44,2.11,1.16l22.66,35.57
				c0.26,0.42,0.39,0.88,0.39,1.34C203.66,330.9,203.25,331.71,202.5,332.19z"/>
		</g>
	</g>
</g>
<g>
	<g>
		<line class="st4" x1="411.5" y1="382" x2="411.5" y2="298.01"/>
		<g>
			<path d="M435.5,332.19c-1.16,0.74-2.71,0.4-3.45-0.77l-20.55-32.26l-20.55,32.26c-0.74,1.17-2.29,1.51-3.45,0.77
				s-1.5-2.3-0.77-3.46l22.66-35.57c0.46-0.72,1.25-1.16,2.11-1.16s1.65,0.44,2.11,1.16l22.66,35.57c0.26,0.42,0.39,0.88,0.39,1.34
				C436.66,330.9,436.25,331.71,435.5,332.19z"/>
		</g>
	</g>
</g>
<text transform="matrix(1 0 0 1 295 187.2891)" class="st5 st6">u[i,j]</text>
<text transform="matrix(1 0 0 1 147 49.2891)" class="st5 st6">v[i,j]</text>
<text transform="matrix(1 0 0 1 387 49.2891)" class="st5 st6">v[i+1,j]</text>
<text transform="matrix(1 0 0 1 153 416.2891)" class="st5 st6">v[i,j-1]</text>
<text transform="matrix(1 0 0 1 393 416.2891)" class="st5 st6">v[i+1,j-1]</text>
<circle cx="293" cy="108" r="13"/>
<circle cx="293" cy="336" r="13"/>
<text transform="matrix(1 0 0 1 302.791 94.6211)" class="st7 st8">①</text>
<text transform="matrix(1 0 0 1 302.791 326.6211)" class="st7 st8">②</text>
</svg>
