<?xml version="1.0" encoding="utf-8"?>
<!-- Generator: Adobe Illustrator 22.1.0, SVG Export Plug-In . SVG Version: 6.00 Build 0)  -->
<svg version="1.1" id="レイヤー_1" xmlns="http://www.w3.org/2000/svg" xmlns:xlink="http://www.w3.org/1999/xlink" x="0px"
	 y="0px" viewBox="0 0 500 500" style="enable-background:new 0 0 500 500;" xml:space="preserve">
<style type="text/css">
	.st0{fill:#FFFFFF;stroke:#000000;stroke-width:3;stroke-miterlimit:10;}
	.st1{fill:none;stroke:#000000;stroke-width:3;stroke-miterlimit:10;}
	.st2{fill:none;stroke:#000000;stroke-width:3;stroke-miterlimit:10;stroke-dasharray:12.4565,12.4565;}
	.st3{fill:none;stroke:#000000;stroke-miterlimit:10;}
</style>
<polygon class="st0" points="36.2,445.7 486,445.7 461.4,159.6 "/>
<g>
	<g>
		<line class="st1" x1="306" y1="56" x2="306" y2="62"/>
		<line class="st2" x1="306" y1="74.4" x2="306" y2="342.2"/>
		<line class="st1" x1="306" y1="348.5" x2="306" y2="354.5"/>
	</g>
</g>
<rect x="306" y="346.2" class="st3" width="8.2" height="8.2"/>
<g>
	<path d="M300.6,47.8v5c0,1.1,0.1,1.8,0.4,2c0.3,0.4,0.8,0.6,1.5,0.6h0.7v0.5h-7.4v-0.5h0.6c0.7,0,1.3-0.2,1.6-0.7
		c0.2-0.3,0.3-0.9,0.3-1.9V41.7c0-1.1-0.1-1.8-0.3-2c-0.3-0.4-0.8-0.6-1.5-0.6h-0.6v-0.5h6.3c1.5,0,2.8,0.2,3.7,0.5s1.6,0.9,2.3,1.6
		c0.6,0.8,0.9,1.6,0.9,2.7c0,1.4-0.5,2.6-1.4,3.4c-0.9,0.9-2.2,1.3-3.9,1.3c-0.4,0-0.9,0-1.3-0.1C301.7,48,301.2,48,300.6,47.8z
		 M300.6,47.1c0.5,0.1,0.8,0.1,1.2,0.2s0.6,0.1,0.9,0.1c0.9,0,1.6-0.3,2.3-1c0.6-0.7,1-1.6,1-2.7c0-0.7-0.2-1.4-0.5-2.1
		c-0.3-0.6-0.7-1.1-1.3-1.4c-0.6-0.3-1.2-0.5-1.9-0.5c-0.4,0-1,0.1-1.7,0.2V47.1z"/>
</g>
<g>
	<path d="M453.4,142.1h5.5v0.5h-0.4c-0.3,0-0.6,0.1-0.8,0.2s-0.3,0.4-0.3,0.6c0,0.3,0.1,0.6,0.3,1.1l2.7,6.4l2.7-6.7
		c0.2-0.5,0.3-0.8,0.3-1.1c0-0.1,0-0.2-0.1-0.3s-0.2-0.2-0.4-0.3c-0.1,0-0.4-0.1-0.9-0.1v-0.5h3.8v0.5c-0.4,0-0.7,0.1-0.9,0.3
		c-0.3,0.3-0.6,0.7-0.8,1.3l-4.1,10h-0.5l-4.2-9.8c-0.2-0.5-0.4-0.8-0.5-1c-0.2-0.2-0.4-0.4-0.6-0.5c-0.1-0.1-0.4-0.1-0.9-0.2
		L453.4,142.1L453.4,142.1z"/>
	<path d="M471.3,152.6c0.3,0,0.6,0,0.8,0c0.2,0,0.4-0.1,0.5-0.1c0.1-0.1,0.2-0.1,0.3-0.2c0.1-0.1,0.1-0.2,0.2-0.3h0.6l-0.8,1.9h-6.4
		v-0.3c1.1-0.8,1.9-1.5,2.6-2.1c0.6-0.6,1.2-1.1,1.5-1.6c0.4-0.5,0.6-0.9,0.7-1.2c0.1-0.4,0.2-0.7,0.2-1s-0.1-0.6-0.2-0.9
		c-0.1-0.2-0.3-0.4-0.5-0.6c-0.2-0.1-0.4-0.3-0.7-0.3s-0.5-0.1-0.6-0.1c-0.3,0-0.6,0.1-0.8,0.2c-0.2,0.1-0.4,0.2-0.6,0.4
		s-0.3,0.3-0.4,0.5s-0.2,0.3-0.2,0.4h-0.6c0.1-0.2,0.1-0.4,0.2-0.7s0.3-0.6,0.5-0.9s0.5-0.5,0.9-0.7s0.9-0.3,1.5-0.3s1,0.1,1.4,0.3
		s0.7,0.4,1,0.6c0.3,0.3,0.4,0.5,0.6,0.8c0.1,0.3,0.2,0.6,0.2,0.8s0,0.3,0,0.5s-0.1,0.4-0.2,0.6s-0.3,0.5-0.4,0.8
		c-0.2,0.3-0.5,0.6-0.8,1s-0.8,0.8-1.3,1.2s-1.1,1-1.9,1.6v0.1h2.7V152.6z"/>
</g>
<g>
	<path d="M5.2,434h5.5v0.5h-0.4c-0.3,0-0.6,0.1-0.8,0.2c-0.2,0.2-0.3,0.4-0.3,0.6c0,0.3,0.1,0.6,0.3,1.1l2.7,6.4l2.7-6.7
		c0.2-0.5,0.3-0.8,0.3-1.1c0-0.1,0-0.2-0.1-0.3c-0.1-0.1-0.2-0.2-0.4-0.3c-0.1,0-0.4-0.1-0.9-0.1V434h3.8v0.5
		c-0.4,0-0.7,0.1-0.9,0.3c-0.3,0.3-0.6,0.7-0.8,1.3l-4.1,10h-0.5l-4.2-9.8c-0.2-0.5-0.4-0.8-0.5-1c-0.2-0.2-0.4-0.4-0.6-0.5
		c-0.1-0.1-0.4-0.1-0.9-0.2L5.2,434L5.2,434z"/>
	<path d="M18.3,441c0-0.9,0.1-1.6,0.4-2.2c0.2-0.6,0.5-1.1,0.9-1.5s0.7-0.7,1.1-0.8s0.8-0.3,1.1-0.3c0.2,0,0.5,0,0.7,0.1
		c0.3,0.1,0.5,0.2,0.8,0.3c0.3,0.2,0.5,0.4,0.8,0.6c0.2,0.3,0.5,0.6,0.6,0.9c0.2,0.4,0.3,0.8,0.4,1.2c0.1,0.5,0.2,1,0.2,1.6
		s-0.1,1.2-0.2,1.7s-0.3,0.9-0.5,1.3s-0.4,0.7-0.7,0.9c-0.2,0.2-0.5,0.4-0.8,0.6c-0.3,0.1-0.5,0.2-0.7,0.3s-0.4,0.1-0.6,0.1
		c-0.3,0-0.7-0.1-1.2-0.2s-0.8-0.4-1.2-0.8c-0.4-0.4-0.7-0.9-0.9-1.5C18.4,442.6,18.3,441.9,18.3,441z M20.1,441c0,0.2,0,0.4,0,0.6
		s0,0.6,0.1,0.9s0.1,0.6,0.2,1c0.1,0.3,0.2,0.6,0.3,0.9s0.3,0.5,0.5,0.7s0.4,0.3,0.7,0.3c0.3,0,0.5-0.1,0.7-0.3
		c0.2-0.2,0.3-0.4,0.5-0.7c0.1-0.3,0.2-0.6,0.3-0.9s0.1-0.7,0.1-1s0-0.6,0.1-0.8c0-0.2,0-0.4,0-0.5c0-0.4,0-0.9-0.1-1.4
		c0-0.5-0.1-1-0.2-1.4s-0.3-0.8-0.5-1.1s-0.5-0.4-0.9-0.4c-0.3,0-0.5,0.1-0.7,0.2s-0.3,0.3-0.5,0.5c-0.1,0.2-0.2,0.5-0.3,0.8
		c-0.1,0.3-0.1,0.6-0.2,0.9s-0.1,0.6-0.1,0.9S20.1,440.7,20.1,441z"/>
</g>
<g>
	<path d="M475.6,453.8h5.5v0.5h-0.4c-0.3,0-0.6,0.1-0.8,0.2c-0.2,0.2-0.3,0.4-0.3,0.6c0,0.3,0.1,0.6,0.3,1.1l2.7,6.4l2.7-6.7
		c0.2-0.5,0.3-0.8,0.3-1.1c0-0.1,0-0.2-0.1-0.3c-0.1-0.1-0.2-0.2-0.4-0.3c-0.1,0-0.4-0.1-0.9-0.1v-0.5h3.8v0.5
		c-0.4,0-0.7,0.1-0.9,0.3c-0.3,0.3-0.6,0.7-0.8,1.3l-4.1,10h-0.5l-4.2-9.8c-0.2-0.5-0.4-0.8-0.5-1c-0.2-0.2-0.4-0.4-0.6-0.5
		c-0.1-0.1-0.4-0.1-0.9-0.2L475.6,453.8L475.6,453.8z"/>
	<path d="M492.6,455.9h0.5v8.1c0,0.2,0,0.4,0.1,0.6c0.1,0.1,0.1,0.2,0.2,0.3s0.2,0.1,0.4,0.1c0.2,0,0.4,0,0.6,0v0.4h-4.2V465
		c0.3,0,0.5,0,0.7,0s0.3-0.1,0.4-0.1c0.1-0.1,0.2-0.2,0.2-0.3s0.1-0.3,0.1-0.5v-5.5c0-0.4,0-0.7-0.1-0.9c0-0.2-0.1-0.3-0.3-0.3
		c-0.1,0-0.3,0-0.4,0.1s-0.3,0.1-0.4,0.2l-0.3-0.4L492.6,455.9z"/>
</g>
<g>
	<path d="M290.4,204.9v3.8h2.7v0.9h-2.7v7.6c0,0.8,0.1,1.3,0.3,1.5c0.2,0.3,0.5,0.4,0.8,0.4s0.6-0.1,0.8-0.3
		c0.3-0.2,0.5-0.4,0.6-0.8h0.5c-0.3,0.8-0.7,1.5-1.3,1.9s-1.1,0.6-1.7,0.6c-0.4,0-0.8-0.1-1.1-0.3s-0.6-0.5-0.8-0.9
		c-0.2-0.4-0.3-1-0.3-1.9v-7.8h-1.8v-0.4c0.5-0.2,0.9-0.5,1.4-0.9s0.9-1,1.3-1.6c0.2-0.3,0.5-0.9,0.8-1.8H290.4z"/>
</g>
<g>
	<path d="M322.8,334.8v5c0,1.1,0.1,1.8,0.4,2c0.3,0.4,0.8,0.6,1.5,0.6h0.7v0.5H318v-0.5h0.6c0.7,0,1.3-0.2,1.6-0.7
		c0.2-0.3,0.3-0.9,0.3-1.9v-11.1c0-1.1-0.1-1.8-0.3-2c-0.3-0.4-0.8-0.6-1.5-0.6h-0.6v-0.5h6.3c1.5,0,2.8,0.2,3.7,0.5
		c0.9,0.3,1.6,0.9,2.3,1.6c0.6,0.8,0.9,1.7,0.9,2.7c0,1.4-0.5,2.6-1.4,3.4c-0.9,0.9-2.2,1.3-3.9,1.3c-0.4,0-0.9,0-1.3-0.1
		C323.9,335,323.4,334.9,322.8,334.8z M322.8,334.1c0.5,0.1,0.8,0.1,1.2,0.2c0.3,0,0.6,0.1,0.9,0.1c0.9,0,1.6-0.3,2.3-1
		c0.6-0.7,1-1.6,1-2.7c0-0.7-0.2-1.4-0.5-2.1s-0.7-1.1-1.3-1.4c-0.6-0.3-1.2-0.5-1.9-0.5c-0.4,0-1,0.1-1.7,0.2V334.1z"/>
	<path d="M338.2,349c-0.2,0.9-0.5,1.6-1.1,2.1s-1.1,0.7-1.8,0.7c-0.8,0-1.4-0.3-2-1c-0.6-0.6-0.9-1.5-0.9-2.6s0.3-1.9,1-2.6
		c0.6-0.7,1.4-1,2.3-1c0.7,0,1.2,0.2,1.6,0.5c0.4,0.4,0.6,0.7,0.6,1.1c0,0.2-0.1,0.3-0.2,0.5s-0.3,0.2-0.5,0.2
		c-0.3,0-0.5-0.1-0.7-0.3c-0.1-0.1-0.1-0.3-0.2-0.6c0-0.3-0.1-0.5-0.3-0.7c-0.2-0.1-0.4-0.2-0.7-0.2c-0.5,0-0.9,0.2-1.2,0.5
		c-0.4,0.5-0.6,1.1-0.6,1.9s0.2,1.5,0.6,2.1s0.9,0.9,1.6,0.9c0.5,0,0.9-0.2,1.3-0.5c0.3-0.2,0.5-0.6,0.8-1.2L338.2,349z"/>
	<path d="M342.5,344.6c1,0,1.9,0.4,2.5,1.2c0.5,0.7,0.8,1.4,0.8,2.3c0,0.6-0.1,1.2-0.4,1.8s-0.7,1.1-1.2,1.4s-1.1,0.5-1.7,0.5
		c-1,0-1.8-0.4-2.4-1.2c-0.5-0.7-0.8-1.5-0.8-2.3c0-0.6,0.2-1.2,0.5-1.9c0.3-0.6,0.7-1.1,1.2-1.4
		C341.4,344.7,341.9,344.6,342.5,344.6z M342.3,345.1c-0.3,0-0.5,0.1-0.8,0.2c-0.3,0.2-0.5,0.4-0.6,0.8s-0.2,0.9-0.2,1.5
		c0,1,0.2,1.8,0.6,2.6c0.4,0.7,0.9,1.1,1.6,1.1c0.5,0,0.9-0.2,1.2-0.6s0.5-1.1,0.5-2c0-1.2-0.3-2.2-0.8-2.8
		C343.3,345.3,342.8,345.1,342.3,345.1z"/>
	<path d="M348.8,346c0.8-1,1.6-1.4,2.3-1.4c0.4,0,0.7,0.1,1,0.3c0.3,0.2,0.5,0.5,0.6,0.9c0.1,0.3,0.2,0.8,0.2,1.4v2.9
		c0,0.4,0,0.7,0.1,0.9c0.1,0.1,0.1,0.2,0.3,0.3c0.1,0.1,0.3,0.1,0.7,0.1v0.3h-3.4v-0.3h0.1c0.3,0,0.5,0,0.7-0.1
		c0.1-0.1,0.2-0.2,0.3-0.4c0-0.1,0-0.3,0-0.7v-2.8c0-0.6-0.1-1.1-0.2-1.3c-0.2-0.3-0.4-0.4-0.8-0.4c-0.6,0-1.2,0.3-1.8,1v3.6
		c0,0.5,0,0.7,0.1,0.9c0.1,0.1,0.2,0.2,0.3,0.3s0.4,0.1,0.7,0.1v0.3h-3.4v-0.3h0.1c0.3,0,0.6-0.1,0.7-0.3s0.2-0.5,0.2-1v-2.5
		c0-0.8,0-1.3-0.1-1.5s-0.1-0.3-0.2-0.4s-0.2-0.1-0.3-0.1c-0.1,0-0.3,0-0.5,0.1l-0.1-0.3l2-0.8h0.3L348.8,346L348.8,346z"/>
	<path d="M356.3,342.5v2.2h1.6v0.5h-1.6v4.4c0,0.4,0.1,0.7,0.2,0.9c0.1,0.2,0.3,0.2,0.5,0.2s0.3-0.1,0.5-0.2s0.3-0.3,0.4-0.4h0.3
		c-0.2,0.5-0.4,0.8-0.7,1.1s-0.6,0.4-1,0.4c-0.2,0-0.5-0.1-0.7-0.2s-0.4-0.3-0.5-0.5s-0.2-0.6-0.2-1.1v-4.6H354V345
		c0.3-0.1,0.5-0.3,0.8-0.6s0.5-0.6,0.8-0.9c0.1-0.2,0.3-0.5,0.5-1L356.3,342.5L356.3,342.5z"/>
</g>
</svg>
