<?xml version="1.0" encoding="utf-8"?>
<!-- Generator: Adobe Illustrator 22.1.0, SVG Export Plug-In . SVG Version: 6.00 Build 0)  -->
<svg version="1.1" id="レイヤー_1" xmlns="http://www.w3.org/2000/svg" xmlns:xlink="http://www.w3.org/1999/xlink" x="0px"
	 y="0px" viewBox="0 0 763 761" style="enable-background:new 0 0 763 761;" xml:space="preserve">
<style type="text/css">
	.st0{fill:none;stroke:#DF0000;stroke-width:2;stroke-miterlimit:10;}
	.st1{fill:none;stroke:#000000;stroke-width:2;stroke-miterlimit:10;}
	.st2{fill:none;stroke:#000000;stroke-width:2;stroke-miterlimit:10;stroke-dasharray:11.6519,11.6519;}
	.st3{fill:none;stroke:#000000;stroke-width:2;stroke-miterlimit:10;stroke-dasharray:11.9124,11.9124;}
	.st4{font-family:'TimesNewRomanPSMT';}
	.st5{font-size:28.4337px;}
	.st6{font-size:16.5768px;}
	.st7{fill:none;stroke:#000000;stroke-miterlimit:10;}
</style>
<g>
	<path d="M431.5,340.2v4.3c0,0.9,0.1,1.5,0.3,1.7c0.3,0.3,0.7,0.5,1.3,0.5h0.6v0.4h-6.3v-0.4h0.5c0.6,0,1.1-0.2,1.4-0.6
		c0.2-0.3,0.3-0.8,0.3-1.6V335c0-0.9-0.1-1.5-0.3-1.7c-0.3-0.3-0.7-0.5-1.3-0.5h-0.5v-0.4h5.4c1.3,0,2.4,0.2,3.2,0.4s1.4,0.8,2,1.4
		c0.5,0.7,0.8,1.4,0.8,2.3c0,1.2-0.4,2.2-1.2,2.9c-0.8,0.8-1.9,1.1-3.3,1.1c-0.3,0-0.8,0-1.1-0.1C432.4,340.4,432,340.4,431.5,340.2
		z M431.5,339.6c0.4,0.1,0.7,0.1,1,0.2s0.5,0.1,0.8,0.1c0.8,0,1.4-0.3,2-0.9c0.5-0.6,0.9-1.4,0.9-2.3c0-0.6-0.2-1.2-0.4-1.8
		c-0.3-0.5-0.6-0.9-1.1-1.2c-0.5-0.3-1-0.4-1.6-0.4c-0.3,0-0.9,0.1-1.5,0.2L431.5,339.6L431.5,339.6z"/>
</g>
<path class="st0" d="M59.9,653.2"/>
<path class="st0" d="M658.7,69.1"/>
<path class="st0" d="M679.8,318.9"/>
<path class="st0" d="M448.3,653.2"/>
<rect x="55.9" y="270.6" class="st1" width="428.9" height="428.9"/>
<line class="st1" x1="55.9" y1="270.6" x2="270.3" y2="56.1"/>
<rect x="270.3" y="56.1" class="st1" width="428.9" height="428.9"/>
<line class="st1" x1="484.8" y1="270.6" x2="699.3" y2="56.1"/>
<line class="st1" x1="484.8" y1="699.5" x2="699.3" y2="485"/>
<line class="st1" x1="55.9" y1="699.5" x2="270.3" y2="485"/>
<g>
	<g>
		<line class="st1" x1="304.3" y1="495.2" x2="308.5" y2="491"/>
		<line class="st2" x1="316.7" y1="482.7" x2="510.4" y2="289.1"/>
		<line class="st1" x1="514.5" y1="285" x2="518.7" y2="280.8"/>
	</g>
</g>
<g>
	<g>
		<line class="st1" x1="439.3" y1="132.6" x2="439.3" y2="138.6"/>
		<line class="st3" x1="439.3" y1="150.5" x2="439.3" y2="549.5"/>
		<line class="st1" x1="439.3" y1="555.5" x2="439.3" y2="561.5"/>
	</g>
</g>
<g>
	<g>
		<line class="st1" x1="621.8" y1="359" x2="615.8" y2="359"/>
		<line class="st3" x1="603.9" y1="359" x2="204.8" y2="359"/>
		<line class="st1" x1="198.9" y1="359" x2="192.9" y2="359"/>
	</g>
</g>
<circle cx="192.9" cy="359" r="6.1"/>
<circle cx="621.8" cy="359" r="6.1"/>
<circle cx="439.3" cy="132.6" r="6.1"/>
<circle cx="439.3" cy="561.5" r="6.1"/>
<circle cx="304.4" cy="495.1" r="6.1"/>
<ellipse transform="matrix(0.1602 -0.9871 0.9871 0.1602 157.1604 747.7199)" cx="518" cy="281.5" rx="6.1" ry="6.1"/>
<circle cx="439.3" cy="359" r="6.1"/>
<text transform="matrix(1 0 0 1 421.8618 114.265)" class="st4 st5">y</text>
<text transform="matrix(1 0 0 1 436.0786 104.7959)" class="st4 st6">+</text>
<text transform="matrix(1 0 0 1 414.3368 553.265)" class="st4 st5">y</text>
<text transform="matrix(1 0 0 1 428.5537 543.7959)" class="st4 st6">-</text>
<text transform="matrix(1 0 0 1 527.776 268.506)" class="st4 st5">z</text>
<text transform="matrix(1 0 0 1 540.3965 259.0371)" class="st4 st6">+</text>
<text transform="matrix(1 0 0 1 281.251 515.5059)" class="st4 st5">z</text>
<text transform="matrix(1 0 0 1 293.8711 506.0371)" class="st4 st6">-</text>
<text transform="matrix(1 0 0 1 602.776 346.8613)" class="st4 st5">x</text>
<text transform="matrix(1 0 0 1 616.9932 337.3926)" class="st4 st6">+</text>
<text transform="matrix(1 0 0 1 165.1027 350.5974)" class="st4 st5">x</text>
<text transform="matrix(1 0 0 1 179.3193 341.1289)" class="st4 st6">-</text>
<text transform="matrix(1 0 0 1 43.3368 726.265)" class="st4 st5">Φ</text>
<text transform="matrix(1 0 0 1 64.1201 735.7334)" class="st4 st6">000</text>
<text transform="matrix(1 0 0 1 480.3376 726.2653)" class="st4 st5">Φ</text>
<text transform="matrix(1 0 0 1 501.1211 735.7334)" class="st4 st6">100</text>
<text transform="matrix(1 0 0 1 27.3369 247.2653)" class="st4 st5">Φ</text>
<text transform="matrix(1 0 0 1 48.1201 256.7334)" class="st4 st6">010</text>
<text transform="matrix(1 0 0 1 442.3369 247.2659)" class="st4 st5">Φ</text>
<text transform="matrix(1 0 0 1 463.1201 256.7344)" class="st4 st6">110</text>
<text transform="matrix(1 0 0 1 208.8521 471.9318)" class="st4 st5">Φ</text>
<text transform="matrix(1 0 0 1 229.6353 481.4004)" class="st4 st6">001</text>
<text transform="matrix(1 0 0 1 645.853 471.9321)" class="st4 st5">Φ</text>
<text transform="matrix(1 0 0 1 666.6367 481.4004)" class="st4 st6">101</text>
<text transform="matrix(1 0 0 1 234.8372 45.1456)" class="st4 st5">Φ</text>
<text transform="matrix(1 0 0 1 255.6201 54.6143)" class="st4 st6">011</text>
<text transform="matrix(1 0 0 1 649.8372 45.1462)" class="st4 st5">Φ</text>
<text transform="matrix(1 0 0 1 670.6201 54.6143)" class="st4 st6">111</text>
<text transform="matrix(1 0 0 1 304.4248 342.125)" class="st4 st5">α</text>
<text transform="matrix(1 0 0 1 355.1029 410.5983)" class="st4 st5">γ</text>
<text transform="matrix(1 0 0 1 453.5139 471.9316)" class="st4 st5">β</text>
<g>
	<path class="st7" d="M397.5,343.3c25.7,3.5,41.8,8.5,41.8,14.2"/>
	<path class="st7" d="M192.9,357.5c0-6.3,20.3-11.9,51.5-15.4"/>
</g>
<g>
	<path class="st7" d="M453.5,529.2c-3.5,21.3-8.5,34.7-14.2,34.7"/>
	<path class="st7" d="M439.3,359.3c6.3,0,11.9,16.9,15.4,42.8"/>
</g>
<g>
	<path class="st7" d="M410.1,373.6c16.8-11.9,29.4-17.4,33.4-13.4"/>
	<path class="st7" d="M305.7,498c-4.5-4.5,2.9-19.8,17.9-39.7"/>
</g>
</svg>
