<?xml version="1.0" encoding="utf-8"?>
<!-- Generator: Adobe Illustrator 22.1.0, SVG Export Plug-In . SVG Version: 6.00 Build 0)  -->
<svg version="1.1" id="レイヤー_1" xmlns="http://www.w3.org/2000/svg" xmlns:xlink="http://www.w3.org/1999/xlink" x="0px"
	 y="0px" viewBox="0 0 916 500" style="enable-background:new 0 0 916 500;" xml:space="preserve">
<style type="text/css">
	.st0{fill:none;stroke:#000000;stroke-width:3;stroke-miterlimit:10;}
	.st1{fill:none;stroke:#000000;stroke-width:3;stroke-miterlimit:10;stroke-dasharray:11.8324,11.8324;}
	.st2{fill:none;stroke:#000000;stroke-width:3;stroke-miterlimit:10;stroke-dasharray:11.9633,11.9633;}
	.st3{fill:none;stroke:#000000;stroke-width:3;stroke-miterlimit:10;stroke-dasharray:12.2071,12.2071;}
	.st4{fill:none;stroke:#000000;stroke-width:3;stroke-miterlimit:10;stroke-dasharray:12.4565,12.4565;}
	.st5{font-family:'TimesNewRomanPSMT';}
	.st6{font-size:22.4199px;}
	.st7{font-size:27.224px;}
	.st8{font-size:15.8716px;}
	.st9{fill:none;}
	.st10{fill:none;stroke:#000000;stroke-miterlimit:10;}
</style>
<polygon class="st0" points="36.2,445.7 486,445.7 461.4,159.6 "/>
<g>
	<path d="M434.9,142.1h5.5v0.5H440c-0.3,0-0.6,0.1-0.8,0.2s-0.3,0.4-0.3,0.6c0,0.3,0.1,0.6,0.3,1.1l2.7,6.4l2.7-6.7
		c0.2-0.5,0.3-0.8,0.3-1.1c0-0.1,0-0.2-0.1-0.3s-0.2-0.2-0.4-0.3c-0.1,0-0.4-0.1-0.9-0.1v-0.5h3.8v0.5c-0.4,0-0.7,0.1-0.9,0.3
		c-0.3,0.3-0.6,0.7-0.8,1.3l-4.1,10H441l-4.2-9.8c-0.2-0.5-0.4-0.8-0.5-1c-0.2-0.2-0.4-0.4-0.6-0.5c-0.1-0.1-0.4-0.1-0.9-0.2
		L434.9,142.1L434.9,142.1z"/>
	<path d="M452.8,152.6c0.3,0,0.6,0,0.8,0c0.2,0,0.4-0.1,0.5-0.1c0.1-0.1,0.2-0.1,0.3-0.2c0.1-0.1,0.1-0.2,0.2-0.3h0.6l-0.8,1.9H448
		v-0.3c1.1-0.8,1.9-1.5,2.6-2.1c0.6-0.6,1.2-1.1,1.5-1.6c0.4-0.5,0.6-0.9,0.7-1.2c0.1-0.4,0.2-0.7,0.2-1s-0.1-0.6-0.2-0.9
		c-0.1-0.2-0.3-0.4-0.5-0.6c-0.2-0.1-0.4-0.3-0.7-0.3s-0.5-0.1-0.6-0.1c-0.3,0-0.6,0.1-0.8,0.2c-0.2,0.1-0.4,0.2-0.6,0.4
		s-0.3,0.3-0.4,0.5s-0.2,0.3-0.2,0.4h-0.6c0.1-0.2,0.1-0.4,0.2-0.7s0.3-0.6,0.5-0.9s0.5-0.5,0.9-0.7s0.9-0.3,1.5-0.3s1,0.1,1.4,0.3
		s0.7,0.4,1,0.6c0.3,0.3,0.4,0.5,0.6,0.8c0.1,0.3,0.2,0.6,0.2,0.8s0,0.3,0,0.5s-0.1,0.4-0.2,0.6s-0.3,0.5-0.4,0.8
		c-0.2,0.3-0.5,0.6-0.8,1s-0.8,0.8-1.3,1.2s-1.1,1-1.9,1.6v0.1h2.7V152.6z"/>
</g>
<g>
	<path d="M5.2,434h5.5v0.5h-0.4c-0.3,0-0.6,0.1-0.8,0.2c-0.2,0.2-0.3,0.4-0.3,0.6c0,0.3,0.1,0.6,0.3,1.1l2.7,6.4l2.7-6.7
		c0.2-0.5,0.3-0.8,0.3-1.1c0-0.1,0-0.2-0.1-0.3c-0.1-0.1-0.2-0.2-0.4-0.3c-0.1,0-0.4-0.1-0.9-0.1V434h3.8v0.5
		c-0.4,0-0.7,0.1-0.9,0.3c-0.3,0.3-0.6,0.7-0.8,1.3l-4.1,10h-0.5l-4.2-9.8c-0.2-0.5-0.4-0.8-0.5-1c-0.2-0.2-0.4-0.4-0.6-0.5
		c-0.1-0.1-0.4-0.1-0.9-0.2L5.2,434L5.2,434z"/>
	<path d="M18.3,441c0-0.9,0.1-1.6,0.4-2.2c0.2-0.6,0.5-1.1,0.9-1.5s0.7-0.7,1.1-0.8s0.8-0.3,1.1-0.3c0.2,0,0.5,0,0.7,0.1
		c0.3,0.1,0.5,0.2,0.8,0.3c0.3,0.2,0.5,0.4,0.8,0.6c0.2,0.3,0.5,0.6,0.6,0.9c0.2,0.4,0.3,0.8,0.4,1.2c0.1,0.5,0.2,1,0.2,1.6
		s-0.1,1.2-0.2,1.7s-0.3,0.9-0.5,1.3s-0.4,0.7-0.7,0.9c-0.2,0.2-0.5,0.4-0.8,0.6c-0.3,0.1-0.5,0.2-0.7,0.3s-0.4,0.1-0.6,0.1
		c-0.3,0-0.7-0.1-1.2-0.2s-0.8-0.4-1.2-0.8c-0.4-0.4-0.7-0.9-0.9-1.5C18.4,442.6,18.3,441.9,18.3,441z M20.1,441c0,0.2,0,0.4,0,0.6
		s0,0.6,0.1,0.9s0.1,0.6,0.2,1c0.1,0.3,0.2,0.6,0.3,0.9s0.3,0.5,0.5,0.7s0.4,0.3,0.7,0.3c0.3,0,0.5-0.1,0.7-0.3
		c0.2-0.2,0.3-0.4,0.5-0.7c0.1-0.3,0.2-0.6,0.3-0.9s0.1-0.7,0.1-1s0-0.6,0.1-0.8c0-0.2,0-0.4,0-0.5c0-0.4,0-0.9-0.1-1.4
		c0-0.5-0.1-1-0.2-1.4s-0.3-0.8-0.5-1.1s-0.5-0.4-0.9-0.4c-0.3,0-0.5,0.1-0.7,0.2s-0.3,0.3-0.5,0.5c-0.1,0.2-0.2,0.5-0.3,0.8
		c-0.1,0.3-0.1,0.6-0.2,0.9s-0.1,0.6-0.1,0.9S20.1,440.7,20.1,441z"/>
</g>
<g>
	<path d="M475.6,453.8h5.5v0.5h-0.4c-0.3,0-0.6,0.1-0.8,0.2c-0.2,0.2-0.3,0.4-0.3,0.6c0,0.3,0.1,0.6,0.3,1.1l2.7,6.4l2.7-6.7
		c0.2-0.5,0.3-0.8,0.3-1.1c0-0.1,0-0.2-0.1-0.3c-0.1-0.1-0.2-0.2-0.4-0.3c-0.1,0-0.4-0.1-0.9-0.1v-0.5h3.8v0.5
		c-0.4,0-0.7,0.1-0.9,0.3c-0.3,0.3-0.6,0.7-0.8,1.3l-4.1,10h-0.5l-4.2-9.8c-0.2-0.5-0.4-0.8-0.5-1c-0.2-0.2-0.4-0.4-0.6-0.5
		c-0.1-0.1-0.4-0.1-0.9-0.2L475.6,453.8L475.6,453.8z"/>
	<path d="M492.6,455.9h0.5v8.1c0,0.2,0,0.4,0.1,0.6c0.1,0.1,0.1,0.2,0.2,0.3s0.2,0.1,0.4,0.1c0.2,0,0.4,0,0.6,0v0.4h-4.2V465
		c0.3,0,0.5,0,0.7,0s0.3-0.1,0.4-0.1c0.1-0.1,0.2-0.2,0.2-0.3s0.1-0.3,0.1-0.5v-5.5c0-0.4,0-0.7-0.1-0.9c0-0.2-0.1-0.3-0.3-0.3
		c-0.1,0-0.3,0-0.4,0.1s-0.3,0.1-0.4,0.2l-0.3-0.4L492.6,455.9z"/>
</g>
<g>
	<g>
		<polyline class="st0" points="41.2,344.9 36.2,348.2 42.2,348.2 		"/>
		<line class="st1" x1="54" y1="348.2" x2="474.1" y2="348.2"/>
		<polyline class="st0" points="480,348.2 486,348.2 485.5,342.2 		"/>
		<line class="st2" x1="484.5" y1="330.3" x2="462.4" y2="74"/>
		<polyline class="st0" points="461.9,68.1 461.4,62.1 456.4,65.4 		"/>
		<line class="st3" x1="446.3" y1="72.3" x2="46.2" y2="341.4"/>
	</g>
</g>
<g>
	<g>
		<line class="st0" x1="462.3" y1="60.1" x2="462.3" y2="62.1"/>
		<line class="st4" x1="462.3" y1="66.2" x2="462.3" y2="153.6"/>
		<line class="st0" x1="462.3" y1="155.7" x2="462.3" y2="157.6"/>
	</g>
</g>
<g>
	<g>
		<line class="st0" x1="486" y1="348.2" x2="486" y2="350.2"/>
		<line class="st4" x1="486" y1="354.2" x2="486" y2="441.7"/>
		<line class="st0" x1="486" y1="443.7" x2="486" y2="445.7"/>
	</g>
</g>
<g>
	<g>
		<line class="st0" x1="36.2" y1="358.1" x2="36.2" y2="445.7"/>
		<g>
			<polygon points="26.7,375.9 29.5,376.9 36.2,358.4 42.9,376.9 45.7,375.9 36.2,349.7 			"/>
		</g>
	</g>
</g>
<text transform="matrix(1 0 0 1 5.1002 407.2132)" class="st5 st6">P</text>
<text transform="matrix(0.583 0 0 0.583 17.5689 414.679)" class="st5 st6">N</text>
<text transform="matrix(1 0 0 1 242.8344 282.3976)" class="st5 st7">e</text>
<text transform="matrix(1 0 0 1 254.9178 291.463)" class="st5 st8">1</text>
<g>
	<line class="st9" x1="243.7" y1="262.1" x2="263.9" y2="262.1"/>
	<g>
		<line class="st10" x1="243.7" y1="262.1" x2="261.8" y2="262.1"/>
		<g>
			<polygon points="257.4,264.4 257.1,263.8 261.7,262.1 257.1,260.4 257.4,259.7 263.9,262.1 			"/>
		</g>
	</g>
</g>
<text transform="matrix(1 0 0 1 288.2358 476.3682)" class="st5 st7">e</text>
<text transform="matrix(1 0 0 1 300.3195 485.4338)" class="st5 st8">0</text>
<g>
	<line class="st9" x1="289.1" y1="456" x2="309.3" y2="456"/>
	<g>
		<line class="st10" x1="289.1" y1="456" x2="307.2" y2="456"/>
		<g>
			<polygon points="302.9,458.4 302.6,457.7 307.2,456 302.6,454.4 302.9,453.7 309.3,456 			"/>
		</g>
	</g>
</g>
<g>
	<g>
		<line class="st0" x1="454.4" y1="164.3" x2="36.2" y2="445.7"/>
		<g>
			<polygon points="434.3,166.3 435.1,169.2 454.1,164.5 442.6,180.4 445,182.1 461.4,159.6 			"/>
		</g>
	</g>
</g>
<g>
	<g>
		<line class="st0" x1="477.5" y1="445.7" x2="36.2" y2="445.7"/>
		<g>
			<polygon points="459.8,436.2 458.8,439 477.2,445.7 458.8,452.4 459.8,455.2 486,445.7 			"/>
		</g>
	</g>
</g>
<g>
	<g>
		<line class="st0" x1="899.9" y1="164.3" x2="481.8" y2="445.7"/>
		<g>
			<polygon points="879.9,166.3 880.6,169.2 899.7,164.5 888.1,180.4 890.5,182.1 907,159.6 			"/>
		</g>
	</g>
</g>
<g>
	<g>
		<line class="st0" x1="903.7" y1="159.6" x2="462.3" y2="159.6"/>
		<g>
			<polygon points="885.9,150.1 884.9,152.9 903.4,159.6 884.9,166.3 885.9,169.1 912.1,159.6 			"/>
		</g>
	</g>
</g>
<g>
	<g>
		<polyline class="st0" points="907.2,65.4 912.1,62.1 906.1,62.1 		"/>
		<line class="st1" x1="894.3" y1="62.1" x2="474.2" y2="62.1"/>
		<polyline class="st0" points="468.3,62.1 462.3,62.1 462.8,68.1 		"/>
		<line class="st2" x1="463.9" y1="80" x2="485.9" y2="336.3"/>
		<polyline class="st0" points="486.4,342.2 486.9,348.2 491.9,344.9 		"/>
		<line class="st3" x1="502" y1="338" x2="902.1" y2="68.9"/>
	</g>
</g>
<g>
	<g>
		<line class="st0" x1="912.1" y1="61.1" x2="912.1" y2="63.1"/>
		<line class="st4" x1="912.1" y1="67.1" x2="912.1" y2="154.6"/>
		<line class="st0" x1="912.1" y1="156.7" x2="912.1" y2="158.6"/>
	</g>
</g>
</svg>
