<?xml version="1.0" encoding="utf-8"?>
<!-- Generator: Adobe Illustrator 22.1.0, SVG Export Plug-In . SVG Version: 6.00 Build 0)  -->
<svg version="1.1" id="レイヤー_1" xmlns="http://www.w3.org/2000/svg" xmlns:xlink="http://www.w3.org/1999/xlink" x="0px"
	 y="0px" viewBox="0 0 500 500" style="enable-background:new 0 0 500 500;" xml:space="preserve">
<style type="text/css">
	.st0{fill:#4BEAFF;}
	.st1{fill:#FFD27F;}
	.st2{fill:none;stroke:#000000;stroke-width:3;stroke-miterlimit:10;}
	.st3{font-family:'TimesNewRomanPSMT';}
	.st4{font-size:12px;}
	.st5{font-size:27.224px;}
	.st6{fill:none;stroke:#000000;stroke-miterlimit:10;}
</style>
<polygon class="st0" points="352.5,121 346.3,331.2 36.2,445.7 "/>
<polygon class="st1" points="486,445.7 346.3,331.2 36.2,445.7 "/>
<polygon class="st2" points="36.2,445.7 486,445.7 352.5,121 "/>
<g>
	<path d="M358.7,318.6v5c0,1.1,0.1,1.8,0.4,2c0.3,0.4,0.8,0.6,1.5,0.6h0.7v0.5h-7.4v-0.5h0.6c0.7,0,1.3-0.2,1.6-0.7
		c0.2-0.3,0.3-0.9,0.3-1.9v-11.1c0-1.1-0.1-1.8-0.3-2c-0.3-0.4-0.8-0.6-1.5-0.6H354v-0.5h6.3c1.5,0,2.8,0.2,3.7,0.5
		c0.9,0.3,1.6,0.9,2.3,1.6c0.6,0.8,0.9,1.6,0.9,2.7c0,1.4-0.5,2.6-1.4,3.4c-0.9,0.9-2.2,1.3-3.9,1.3c-0.4,0-0.9,0-1.3-0.1
		C359.8,318.8,359.3,318.8,358.7,318.6z M358.7,317.9c0.5,0.1,0.8,0.1,1.2,0.2s0.6,0.1,0.9,0.1c0.9,0,1.6-0.3,2.3-1
		c0.6-0.7,1-1.6,1-2.7c0-0.7-0.2-1.4-0.5-2.1c-0.3-0.6-0.7-1.1-1.3-1.4c-0.6-0.3-1.2-0.5-1.9-0.5c-0.4,0-1,0.1-1.7,0.2V317.9z"/>
</g>
<g>
	<path d="M340.1,104.7h5.5v0.5h-0.4c-0.3,0-0.6,0.1-0.8,0.2c-0.2,0.1-0.3,0.4-0.3,0.6c0,0.3,0.1,0.6,0.3,1.1l2.7,6.4l2.7-6.7
		c0.2-0.5,0.3-0.8,0.3-1.1c0-0.1,0-0.2-0.1-0.3c-0.1-0.1-0.2-0.2-0.4-0.3c-0.1,0-0.4-0.1-0.9-0.1v-0.5h3.8v0.5
		c-0.4,0-0.7,0.1-0.9,0.3c-0.3,0.3-0.6,0.7-0.8,1.3l-4.1,10h-0.5l-4.2-9.8c-0.2-0.5-0.4-0.8-0.5-1c-0.2-0.2-0.4-0.4-0.6-0.5
		c-0.1-0.1-0.4-0.1-0.9-0.2L340.1,104.7L340.1,104.7z"/>
	<path d="M358,115.2c0.3,0,0.6,0,0.8,0c0.2,0,0.4-0.1,0.5-0.1c0.1-0.1,0.2-0.1,0.3-0.2c0.1-0.1,0.1-0.2,0.2-0.3h0.6l-0.8,1.9h-6.4
		v-0.3c1.1-0.8,1.9-1.5,2.6-2.1c0.6-0.6,1.2-1.1,1.5-1.6c0.4-0.5,0.6-0.9,0.7-1.2c0.1-0.4,0.2-0.7,0.2-1s-0.1-0.6-0.2-0.9
		c-0.1-0.2-0.3-0.4-0.5-0.6c-0.2-0.1-0.4-0.3-0.7-0.3c-0.3,0-0.5-0.1-0.6-0.1c-0.3,0-0.6,0.1-0.8,0.2c-0.2,0.1-0.4,0.2-0.6,0.4
		s-0.3,0.3-0.4,0.5c-0.1,0.2-0.2,0.3-0.2,0.4h-0.6c0.1-0.2,0.1-0.4,0.2-0.7c0.1-0.3,0.3-0.6,0.5-0.9s0.5-0.5,0.9-0.7
		c0.4-0.2,0.9-0.3,1.5-0.3c0.6,0,1,0.1,1.4,0.3c0.4,0.2,0.7,0.4,1,0.6c0.3,0.3,0.4,0.5,0.6,0.8c0.1,0.3,0.2,0.6,0.2,0.8s0,0.3,0,0.5
		s-0.1,0.4-0.2,0.6c-0.1,0.2-0.3,0.5-0.4,0.8c-0.2,0.3-0.5,0.6-0.8,1s-0.8,0.8-1.3,1.2s-1.1,1-1.9,1.6v0.1h2.7V115.2z"/>
</g>
<g>
	<path d="M5.2,434h5.5v0.5h-0.4c-0.3,0-0.6,0.1-0.8,0.2c-0.2,0.2-0.3,0.4-0.3,0.6c0,0.3,0.1,0.6,0.3,1.1l2.7,6.4l2.7-6.7
		c0.2-0.5,0.3-0.8,0.3-1.1c0-0.1,0-0.2-0.1-0.3c-0.1-0.1-0.2-0.2-0.4-0.3c-0.1,0-0.4-0.1-0.9-0.1V434h3.8v0.5
		c-0.4,0-0.7,0.1-0.9,0.3c-0.3,0.3-0.6,0.7-0.8,1.3l-4.1,10h-0.5l-4.2-9.8c-0.2-0.5-0.4-0.8-0.5-1c-0.2-0.2-0.4-0.4-0.6-0.5
		c-0.1-0.1-0.4-0.1-0.9-0.2L5.2,434L5.2,434z"/>
	<path d="M18.3,441c0-0.9,0.1-1.6,0.4-2.2c0.2-0.6,0.5-1.1,0.9-1.5s0.7-0.7,1.1-0.8s0.8-0.3,1.1-0.3c0.2,0,0.5,0,0.7,0.1
		c0.3,0.1,0.5,0.2,0.8,0.3c0.3,0.2,0.5,0.4,0.8,0.6c0.2,0.3,0.5,0.6,0.6,0.9c0.2,0.4,0.3,0.8,0.4,1.2c0.1,0.5,0.2,1,0.2,1.6
		s-0.1,1.2-0.2,1.7s-0.3,0.9-0.5,1.3s-0.4,0.7-0.7,0.9c-0.2,0.2-0.5,0.4-0.8,0.6c-0.3,0.1-0.5,0.2-0.7,0.3s-0.4,0.1-0.6,0.1
		c-0.3,0-0.7-0.1-1.2-0.2s-0.8-0.4-1.2-0.8c-0.4-0.4-0.7-0.9-0.9-1.5C18.4,442.6,18.3,441.9,18.3,441z M20.1,441c0,0.2,0,0.4,0,0.6
		s0,0.6,0.1,0.9s0.1,0.6,0.2,1c0.1,0.3,0.2,0.6,0.3,0.9s0.3,0.5,0.5,0.7s0.4,0.3,0.7,0.3c0.3,0,0.5-0.1,0.7-0.3
		c0.2-0.2,0.3-0.4,0.5-0.7c0.1-0.3,0.2-0.6,0.3-0.9s0.1-0.7,0.1-1s0-0.6,0.1-0.8c0-0.2,0-0.4,0-0.5c0-0.4,0-0.9-0.1-1.4
		c0-0.5-0.1-1-0.2-1.4s-0.3-0.8-0.5-1.1s-0.5-0.4-0.9-0.4c-0.3,0-0.5,0.1-0.7,0.2s-0.3,0.3-0.5,0.5c-0.1,0.2-0.2,0.5-0.3,0.8
		c-0.1,0.3-0.1,0.6-0.2,0.9s-0.1,0.6-0.1,0.9S20.1,440.7,20.1,441z"/>
</g>
<g>
	<path d="M475.6,453.8h5.5v0.5h-0.4c-0.3,0-0.6,0.1-0.8,0.2c-0.2,0.2-0.3,0.4-0.3,0.6c0,0.3,0.1,0.6,0.3,1.1l2.7,6.4l2.7-6.7
		c0.2-0.5,0.3-0.8,0.3-1.1c0-0.1,0-0.2-0.1-0.3c-0.1-0.1-0.2-0.2-0.4-0.3c-0.1,0-0.4-0.1-0.9-0.1v-0.5h3.8v0.5
		c-0.4,0-0.7,0.1-0.9,0.3c-0.3,0.3-0.6,0.7-0.8,1.3l-4.1,10h-0.5l-4.2-9.8c-0.2-0.5-0.4-0.8-0.5-1c-0.2-0.2-0.4-0.4-0.6-0.5
		c-0.1-0.1-0.4-0.1-0.9-0.2L475.6,453.8L475.6,453.8z"/>
	<path d="M492.6,455.9h0.5v8.1c0,0.2,0,0.4,0.1,0.6c0.1,0.1,0.1,0.2,0.2,0.3s0.2,0.1,0.4,0.1c0.2,0,0.4,0,0.6,0v0.4h-4.2V465
		c0.3,0,0.5,0,0.7,0s0.3-0.1,0.4-0.1c0.1-0.1,0.2-0.2,0.2-0.3s0.1-0.3,0.1-0.5v-5.5c0-0.4,0-0.7-0.1-0.9c0-0.2-0.1-0.3-0.3-0.3
		c-0.1,0-0.3,0-0.4,0.1s-0.3,0.1-0.4,0.2l-0.3-0.4L492.6,455.9z"/>
</g>
<g>
	<path d="M379.7,318.6v5c0,1.1,0.1,1.8,0.4,2c0.3,0.4,0.8,0.6,1.5,0.6h0.7v0.5h-7.4v-0.5h0.6c0.7,0,1.3-0.2,1.6-0.7
		c0.2-0.3,0.3-0.9,0.3-1.9v-11.1c0-1.1-0.1-1.8-0.3-2c-0.3-0.4-0.8-0.6-1.5-0.6H375v-0.5h6.3c1.5,0,2.8,0.2,3.7,0.5
		c0.9,0.3,1.6,0.9,2.3,1.6c0.6,0.8,0.9,1.7,0.9,2.7c0,1.4-0.5,2.6-1.4,3.4c-0.9,0.9-2.2,1.3-3.9,1.3c-0.4,0-0.9,0-1.3-0.1
		C380.8,318.8,380.3,318.7,379.7,318.6z M379.7,317.9c0.5,0.1,0.8,0.1,1.2,0.2c0.3,0,0.6,0.1,0.9,0.1c0.9,0,1.6-0.3,2.3-1
		c0.6-0.7,1-1.6,1-2.7c0-0.7-0.2-1.4-0.5-2.1s-0.7-1.1-1.3-1.4c-0.6-0.3-1.2-0.5-1.9-0.5c-0.4,0-1,0.1-1.7,0.2V317.9z"/>
	<path d="M395.1,332.8c-0.2,0.9-0.5,1.6-1.1,2.1s-1.1,0.7-1.8,0.7c-0.8,0-1.4-0.3-2-1c-0.6-0.6-0.9-1.5-0.9-2.6s0.3-1.9,1-2.6
		c0.6-0.7,1.4-1,2.3-1c0.7,0,1.2,0.2,1.6,0.5c0.4,0.4,0.6,0.7,0.6,1.1c0,0.2-0.1,0.3-0.2,0.5s-0.3,0.2-0.5,0.2
		c-0.3,0-0.5-0.1-0.7-0.3c-0.1-0.1-0.1-0.3-0.2-0.6c0-0.3-0.1-0.5-0.3-0.7c-0.2-0.1-0.4-0.2-0.7-0.2c-0.5,0-0.9,0.2-1.2,0.5
		c-0.4,0.5-0.6,1.1-0.6,1.9s0.2,1.5,0.6,2.1s0.9,0.9,1.6,0.9c0.5,0,0.9-0.2,1.3-0.5c0.3-0.2,0.5-0.6,0.8-1.2L395.1,332.8z"/>
	<path d="M399.4,328.4c1,0,1.9,0.4,2.5,1.2c0.5,0.7,0.8,1.4,0.8,2.3c0,0.6-0.1,1.2-0.4,1.8s-0.7,1.1-1.2,1.4s-1.1,0.5-1.7,0.5
		c-1,0-1.8-0.4-2.4-1.2c-0.5-0.7-0.8-1.5-0.8-2.3c0-0.6,0.2-1.2,0.5-1.9c0.3-0.6,0.7-1.1,1.2-1.4
		C398.3,328.5,398.8,328.4,399.4,328.4z M399.2,328.9c-0.3,0-0.5,0.1-0.8,0.2c-0.3,0.2-0.5,0.4-0.6,0.8s-0.2,0.9-0.2,1.5
		c0,1,0.2,1.8,0.6,2.6c0.4,0.7,0.9,1.1,1.6,1.1c0.5,0,0.9-0.2,1.2-0.6s0.5-1.1,0.5-2c0-1.2-0.3-2.2-0.8-2.8
		C400.2,329.1,399.7,328.9,399.2,328.9z"/>
	<path d="M405.7,329.8c0.8-1,1.6-1.4,2.3-1.4c0.4,0,0.7,0.1,1,0.3c0.3,0.2,0.5,0.5,0.6,0.9c0.1,0.3,0.2,0.8,0.2,1.4v2.9
		c0,0.4,0,0.7,0.1,0.9c0.1,0.1,0.1,0.2,0.3,0.3c0.1,0.1,0.3,0.1,0.7,0.1v0.3h-3.4v-0.3h0.1c0.3,0,0.5,0,0.7-0.1
		c0.1-0.1,0.2-0.2,0.3-0.4c0-0.1,0-0.3,0-0.7v-2.8c0-0.6-0.1-1.1-0.2-1.3c-0.2-0.3-0.4-0.4-0.8-0.4c-0.6,0-1.2,0.3-1.8,1v3.6
		c0,0.5,0,0.7,0.1,0.9c0.1,0.1,0.2,0.2,0.3,0.3s0.4,0.1,0.7,0.1v0.3h-3.4v-0.3h0.1c0.3,0,0.6-0.1,0.7-0.3s0.2-0.5,0.2-1v-2.5
		c0-0.8,0-1.3-0.1-1.5s-0.1-0.3-0.2-0.4s-0.2-0.1-0.3-0.1c-0.1,0-0.3,0-0.5,0.1l-0.1-0.3l2-0.8h0.3L405.7,329.8L405.7,329.8z"/>
	<path d="M413.2,326.3v2.2h1.6v0.5h-1.6v4.4c0,0.4,0.1,0.7,0.2,0.9c0.1,0.2,0.3,0.2,0.5,0.2s0.3-0.1,0.5-0.2s0.3-0.3,0.4-0.4h0.3
		c-0.2,0.5-0.4,0.8-0.7,1.1s-0.6,0.4-1,0.4c-0.2,0-0.5-0.1-0.7-0.2s-0.4-0.3-0.5-0.5s-0.2-0.6-0.2-1.1V329h-1.1v-0.2
		c0.3-0.1,0.5-0.3,0.8-0.6s0.5-0.6,0.8-0.9c0.1-0.2,0.3-0.5,0.5-1L413.2,326.3L413.2,326.3z"/>
</g>
<text transform="matrix(1 0 0 1 367.1666 326.3)" class="st3 st4">,</text>
<circle cx="346.3" cy="331.2" r="2.3"/>
<text transform="matrix(1 0 0 1 160.501 270.731)" class="st3 st5">e</text>
<text transform="matrix(0.583 0 0 0.583 172.5845 279.7965)" class="st3 st5">1</text>
<g>
	<line x1="161.4" y1="250.4" x2="181.6" y2="250.4"/>
	<g>
		<line class="st6" x1="161.4" y1="250.4" x2="179.5" y2="250.4"/>
		<g>
			<polygon points="175.1,252.7 174.8,252.1 179.4,250.4 174.8,248.7 175.1,248 181.6,250.4 			"/>
		</g>
	</g>
</g>
<text transform="matrix(1 0 0 1 250.5692 475.8685)" class="st3 st5">e</text>
<text transform="matrix(0.583 0 0 0.583 262.6527 484.934)" class="st3 st5">0</text>
<g>
	<line x1="251.4" y1="455.5" x2="271.6" y2="455.5"/>
	<g>
		<line class="st6" x1="251.4" y1="455.5" x2="269.5" y2="455.5"/>
		<g>
			<polygon points="265.2,457.9 264.9,457.2 269.5,455.5 264.9,453.9 265.2,453.2 271.6,455.5 			"/>
		</g>
	</g>
</g>
<g>
	<g>
		<line class="st2" x1="36.2" y1="445.7" x2="346.6" y2="127.1"/>
		<g>
			<polygon points="341,146.4 338.3,145.2 346.4,127.3 328.7,135.8 327.4,133.1 352.5,121 			"/>
		</g>
	</g>
</g>
<g>
	<g>
		<line class="st2" x1="36.2" y1="445.7" x2="477.5" y2="445.7"/>
		<g>
			<polygon points="459.8,455.2 458.8,452.4 477.2,445.7 458.8,439 459.8,436.2 486,445.7 			"/>
		</g>
	</g>
</g>
<text transform="matrix(1 0 0 1 277.251 411.231)" class="st3 st5">u</text>
<text transform="matrix(1 0 0 1 230.9176 314.3496)" class="st3 st5">v</text>
</svg>
