<?xml version="1.0" encoding="utf-8"?>
<!-- Generator: Adobe Illustrator 22.1.0, SVG Export Plug-In . SVG Version: 6.00 Build 0)  -->
<svg version="1.1" id="レイヤー_1" xmlns="http://www.w3.org/2000/svg" xmlns:xlink="http://www.w3.org/1999/xlink" x="0px"
	 y="0px" viewBox="0 0 500 526" style="enable-background:new 0 0 500 526;" xml:space="preserve">
<style type="text/css">
	.st0{fill:#FFFFFF;stroke:#000000;stroke-width:2;stroke-miterlimit:10;}
	.st1{fill:none;stroke:#000000;stroke-width:3;stroke-miterlimit:10;}
	.st2{fill:none;stroke:#000000;stroke-width:3;stroke-miterlimit:10;stroke-dasharray:12.4565,12.4565;}
	.st3{fill:none;stroke:#000000;stroke-miterlimit:10;}
	.st4{fill:none;stroke:#FF00FF;stroke-width:2;stroke-miterlimit:10;}
	.st5{fill:none;stroke:#DF0000;stroke-width:2;stroke-miterlimit:10;}
	.st6{fill:none;stroke:#0000FF;stroke-width:2;stroke-miterlimit:10;}
	.st7{font-family:'TimesNewRomanPSMT';}
	.st8{font-size:22.4199px;}
	.st9{font-size:13.0708px;}
	.st10{fill:none;stroke:#DF00FF;stroke-width:2;stroke-miterlimit:10;}
</style>
<polygon class="st0" points="36.2,471.7 486,471.7 461.4,185.6 "/>
<g>
	<g>
		<line class="st1" x1="306" y1="82" x2="306" y2="88"/>
		<line class="st2" x1="306" y1="100.4" x2="306" y2="368.2"/>
		<line class="st1" x1="306" y1="374.5" x2="306" y2="380.5"/>
	</g>
</g>
<rect x="306" y="372.2" class="st3" width="8.2" height="8.2"/>
<g>
	<path d="M288,73.8v5c0,1.1,0.1,1.8,0.4,2c0.3,0.4,0.8,0.6,1.5,0.6h0.7v0.5h-7.4v-0.5h0.6c0.7,0,1.3-0.2,1.6-0.7
		c0.2-0.3,0.3-0.9,0.3-1.9V67.7c0-1.1-0.1-1.8-0.3-2c-0.3-0.4-0.8-0.6-1.5-0.6h-0.6v-0.5h6.3c1.5,0,2.8,0.2,3.7,0.5
		c0.9,0.3,1.6,0.9,2.3,1.6c0.6,0.8,0.9,1.6,0.9,2.7c0,1.4-0.5,2.6-1.4,3.4c-0.9,0.9-2.2,1.3-3.9,1.3c-0.4,0-0.9,0-1.3-0.1
		C289.1,74,288.6,74,288,73.8z M288,73.1c0.5,0.1,0.8,0.1,1.2,0.2c0.4,0.1,0.6,0.1,0.9,0.1c0.9,0,1.6-0.3,2.3-1c0.6-0.7,1-1.6,1-2.7
		c0-0.7-0.2-1.4-0.5-2.1c-0.3-0.6-0.7-1.1-1.3-1.4c-0.6-0.3-1.2-0.5-1.9-0.5c-0.4,0-1,0.1-1.7,0.2V73.1z"/>
</g>
<g>
	<path d="M453.4,168.1h5.5v0.5h-0.4c-0.3,0-0.6,0.1-0.8,0.2s-0.3,0.4-0.3,0.6c0,0.3,0.1,0.6,0.3,1.1l2.7,6.4l2.7-6.7
		c0.2-0.5,0.3-0.8,0.3-1.1c0-0.1,0-0.2-0.1-0.3s-0.2-0.2-0.4-0.3c-0.1,0-0.4-0.1-0.9-0.1v-0.5h3.8v0.5c-0.4,0-0.7,0.1-0.9,0.3
		c-0.3,0.3-0.6,0.7-0.8,1.3l-4.1,10h-0.5l-4.2-9.8c-0.2-0.5-0.4-0.8-0.5-1c-0.2-0.2-0.4-0.4-0.6-0.5c-0.1-0.1-0.4-0.1-0.9-0.2
		L453.4,168.1L453.4,168.1z"/>
	<path d="M471.3,178.6c0.3,0,0.6,0,0.8,0c0.2,0,0.4-0.1,0.5-0.1c0.1-0.1,0.2-0.1,0.3-0.2c0.1-0.1,0.1-0.2,0.2-0.3h0.6l-0.8,1.9h-6.4
		v-0.3c1.1-0.8,1.9-1.5,2.6-2.1c0.6-0.6,1.2-1.1,1.5-1.6c0.4-0.5,0.6-0.9,0.7-1.2c0.1-0.4,0.2-0.7,0.2-1s-0.1-0.6-0.2-0.9
		c-0.1-0.2-0.3-0.4-0.5-0.6c-0.2-0.1-0.4-0.3-0.7-0.3s-0.5-0.1-0.6-0.1c-0.3,0-0.6,0.1-0.8,0.2c-0.2,0.1-0.4,0.2-0.6,0.4
		s-0.3,0.3-0.4,0.5s-0.2,0.3-0.2,0.4h-0.6c0.1-0.2,0.1-0.4,0.2-0.7s0.3-0.6,0.5-0.9s0.5-0.5,0.9-0.7s0.9-0.3,1.5-0.3s1,0.1,1.4,0.3
		s0.7,0.4,1,0.6c0.3,0.3,0.4,0.5,0.6,0.8c0.1,0.3,0.2,0.6,0.2,0.8s0,0.3,0,0.5s-0.1,0.4-0.2,0.6s-0.3,0.5-0.4,0.8
		c-0.2,0.3-0.5,0.6-0.8,1s-0.8,0.8-1.3,1.2s-1.1,1-1.9,1.6v0.1h2.7L471.3,178.6L471.3,178.6z"/>
</g>
<g>
	<path d="M10.1,471.4h5.5v0.5h-0.4c-0.3,0-0.6,0.1-0.8,0.2c-0.2,0.2-0.3,0.4-0.3,0.6c0,0.3,0.1,0.6,0.3,1.1l2.7,6.4l2.7-6.7
		c0.2-0.5,0.3-0.8,0.3-1.1c0-0.1,0-0.2-0.1-0.3c-0.1-0.1-0.2-0.2-0.4-0.3c-0.1,0-0.4-0.1-0.9-0.1v-0.3h3.8v0.5
		c-0.4,0-0.7,0.1-0.9,0.3c-0.3,0.3-0.6,0.7-0.8,1.3l-4.1,10h-0.5l-4.2-9.8c-0.2-0.5-0.4-0.8-0.5-1c-0.2-0.2-0.4-0.4-0.6-0.5
		c-0.1-0.1-0.4-0.1-0.9-0.2L10.1,471.4L10.1,471.4z"/>
	<path d="M23.2,478.4c0-0.9,0.1-1.6,0.4-2.2c0.2-0.6,0.5-1.1,0.9-1.5s0.7-0.7,1.1-0.8s0.8-0.3,1.1-0.3c0.2,0,0.5,0,0.7,0.1
		c0.3,0.1,0.5,0.2,0.8,0.3c0.3,0.2,0.5,0.4,0.8,0.6c0.2,0.3,0.5,0.6,0.6,0.9c0.2,0.4,0.3,0.8,0.4,1.2c0.1,0.5,0.2,1,0.2,1.6
		s-0.1,1.2-0.2,1.7s-0.3,0.9-0.5,1.3s-0.4,0.7-0.7,0.9c-0.2,0.2-0.5,0.4-0.8,0.6c-0.3,0.1-0.5,0.2-0.7,0.3s-0.4,0.1-0.6,0.1
		c-0.3,0-0.7-0.1-1.2-0.2s-0.8-0.4-1.2-0.8c-0.4-0.4-0.7-0.9-0.9-1.5C23.3,480,23.2,479.3,23.2,478.4z M25,478.4c0,0.2,0,0.4,0,0.6
		s0,0.6,0.1,0.9s0.1,0.6,0.2,1c0.1,0.3,0.2,0.6,0.3,0.9s0.3,0.5,0.5,0.7s0.4,0.3,0.7,0.3c0.3,0,0.5-0.1,0.7-0.3
		c0.2-0.2,0.3-0.4,0.5-0.7c0.1-0.3,0.2-0.6,0.3-0.9s0.1-0.7,0.1-1s0-0.6,0.1-0.8c0-0.2,0-0.4,0-0.5c0-0.4,0-0.9-0.1-1.4
		c0-0.5-0.1-1-0.2-1.4s-0.3-0.8-0.5-1.1s-0.5-0.4-0.9-0.4c-0.3,0-0.5,0.1-0.7,0.2s-0.3,0.3-0.5,0.5c-0.1,0.2-0.2,0.5-0.3,0.8
		c-0.1,0.3-0.1,0.6-0.2,0.9s-0.1,0.6-0.1,0.9S25,478.1,25,478.4z"/>
</g>
<g>
	<path d="M475.6,479.8h5.5v0.5h-0.4c-0.3,0-0.6,0.1-0.8,0.2c-0.2,0.2-0.3,0.4-0.3,0.6c0,0.3,0.1,0.6,0.3,1.1l2.7,6.4l2.7-6.7
		c0.2-0.5,0.3-0.8,0.3-1.1c0-0.1,0-0.2-0.1-0.3c-0.1-0.1-0.2-0.2-0.4-0.3c-0.1,0-0.4-0.1-0.9-0.1v-0.5h3.8v0.5
		c-0.4,0-0.7,0.1-0.9,0.3c-0.3,0.3-0.6,0.7-0.8,1.3l-4.1,10h-0.5l-4.2-9.8c-0.2-0.5-0.4-0.8-0.5-1c-0.2-0.2-0.4-0.4-0.6-0.5
		c-0.1-0.1-0.4-0.1-0.9-0.2L475.6,479.8L475.6,479.8z"/>
	<path d="M492.6,481.9h0.5v8.1c0,0.2,0,0.4,0.1,0.6c0.1,0.1,0.1,0.2,0.2,0.3s0.2,0.1,0.4,0.1c0.2,0,0.4,0,0.6,0v0.4h-4.2V491
		c0.3,0,0.5,0,0.7,0s0.3-0.1,0.4-0.1c0.1-0.1,0.2-0.2,0.2-0.3s0.1-0.3,0.1-0.5v-5.5c0-0.4,0-0.7-0.1-0.9c0-0.2-0.1-0.3-0.3-0.3
		c-0.1,0-0.3,0-0.4,0.1s-0.3,0.1-0.4,0.2l-0.3-0.4L492.6,481.9z"/>
</g>
<g>
	<path d="M290.4,230.9v3.8h2.7v0.9h-2.7v7.6c0,0.8,0.1,1.3,0.3,1.5c0.2,0.3,0.5,0.4,0.8,0.4s0.6-0.1,0.8-0.3
		c0.3-0.2,0.5-0.4,0.6-0.8h0.5c-0.3,0.8-0.7,1.5-1.3,1.9s-1.1,0.6-1.7,0.6c-0.4,0-0.8-0.1-1.1-0.3s-0.6-0.5-0.8-0.9
		c-0.2-0.4-0.3-1-0.3-1.9v-7.8h-1.8v-0.4c0.5-0.2,0.9-0.5,1.4-0.9s0.9-1,1.3-1.6c0.2-0.3,0.5-0.9,0.8-1.8H290.4z"/>
</g>
<g>
	<path d="M322.8,360.8v5c0,1.1,0.1,1.8,0.4,2c0.3,0.4,0.8,0.6,1.5,0.6h0.7v0.5H318v-0.5h0.6c0.7,0,1.3-0.2,1.6-0.7
		c0.2-0.3,0.3-0.9,0.3-1.9v-11.1c0-1.1-0.1-1.8-0.3-2c-0.3-0.4-0.8-0.6-1.5-0.6h-0.6v-0.5h6.3c1.5,0,2.8,0.2,3.7,0.5
		c0.9,0.3,1.6,0.9,2.3,1.6c0.6,0.8,0.9,1.7,0.9,2.7c0,1.4-0.5,2.6-1.4,3.4c-0.9,0.9-2.2,1.3-3.9,1.3c-0.4,0-0.9,0-1.3-0.1
		C323.9,361,323.4,360.9,322.8,360.8z M322.8,360.1c0.5,0.1,0.8,0.1,1.2,0.2c0.3,0,0.6,0.1,0.9,0.1c0.9,0,1.6-0.3,2.3-1
		c0.6-0.7,1-1.6,1-2.7c0-0.7-0.2-1.4-0.5-2.1s-0.7-1.1-1.3-1.4c-0.6-0.3-1.2-0.5-1.9-0.5c-0.4,0-1,0.1-1.7,0.2V360.1z"/>
	<path d="M338.2,375c-0.2,0.9-0.5,1.6-1.1,2.1s-1.1,0.7-1.8,0.7c-0.8,0-1.4-0.3-2-1c-0.6-0.6-0.9-1.5-0.9-2.6s0.3-1.9,1-2.6
		c0.6-0.7,1.4-1,2.3-1c0.7,0,1.2,0.2,1.6,0.5c0.4,0.4,0.6,0.7,0.6,1.1c0,0.2-0.1,0.3-0.2,0.5s-0.3,0.2-0.5,0.2
		c-0.3,0-0.5-0.1-0.7-0.3c-0.1-0.1-0.1-0.3-0.2-0.6c0-0.3-0.1-0.5-0.3-0.7c-0.2-0.1-0.4-0.2-0.7-0.2c-0.5,0-0.9,0.2-1.2,0.5
		c-0.4,0.5-0.6,1.1-0.6,1.9s0.2,1.5,0.6,2.1s0.9,0.9,1.6,0.9c0.5,0,0.9-0.2,1.3-0.5c0.3-0.2,0.5-0.6,0.8-1.2L338.2,375z"/>
	<path d="M342.5,370.6c1,0,1.9,0.4,2.5,1.2c0.5,0.7,0.8,1.4,0.8,2.3c0,0.6-0.1,1.2-0.4,1.8s-0.7,1.1-1.2,1.4s-1.1,0.5-1.7,0.5
		c-1,0-1.8-0.4-2.4-1.2c-0.5-0.7-0.8-1.5-0.8-2.3c0-0.6,0.2-1.2,0.5-1.9c0.3-0.6,0.7-1.1,1.2-1.4
		C341.4,370.7,341.9,370.6,342.5,370.6z M342.3,371.1c-0.3,0-0.5,0.1-0.8,0.2c-0.3,0.2-0.5,0.4-0.6,0.8s-0.2,0.9-0.2,1.5
		c0,1,0.2,1.8,0.6,2.6c0.4,0.7,0.9,1.1,1.6,1.1c0.5,0,0.9-0.2,1.2-0.6s0.5-1.1,0.5-2c0-1.2-0.3-2.2-0.8-2.8
		C343.3,371.3,342.8,371.1,342.3,371.1z"/>
	<path d="M348.8,372c0.8-1,1.6-1.4,2.3-1.4c0.4,0,0.7,0.1,1,0.3c0.3,0.2,0.5,0.5,0.6,0.9c0.1,0.3,0.2,0.8,0.2,1.4v2.9
		c0,0.4,0,0.7,0.1,0.9c0.1,0.1,0.1,0.2,0.3,0.3c0.1,0.1,0.3,0.1,0.7,0.1v0.3h-3.4v-0.3h0.1c0.3,0,0.5,0,0.7-0.1
		c0.1-0.1,0.2-0.2,0.3-0.4c0-0.1,0-0.3,0-0.7v-2.8c0-0.6-0.1-1.1-0.2-1.3c-0.2-0.3-0.4-0.4-0.8-0.4c-0.6,0-1.2,0.3-1.8,1v3.6
		c0,0.5,0,0.7,0.1,0.9c0.1,0.1,0.2,0.2,0.3,0.3s0.4,0.1,0.7,0.1v0.3h-3.4v-0.3h0.1c0.3,0,0.6-0.1,0.7-0.3s0.2-0.5,0.2-1v-2.5
		c0-0.8,0-1.3-0.1-1.5s-0.1-0.3-0.2-0.4s-0.2-0.1-0.3-0.1c-0.1,0-0.3,0-0.5,0.1l-0.1-0.3l2-0.8h0.3L348.8,372L348.8,372z"/>
	<path d="M356.3,368.5v2.2h1.6v0.5h-1.6v4.4c0,0.4,0.1,0.7,0.2,0.9c0.1,0.2,0.3,0.2,0.5,0.2s0.3-0.1,0.5-0.2s0.3-0.3,0.4-0.4h0.3
		c-0.2,0.5-0.4,0.8-0.7,1.1s-0.6,0.4-1,0.4c-0.2,0-0.5-0.1-0.7-0.2s-0.4-0.3-0.5-0.5s-0.2-0.6-0.2-1.1v-4.6H354V371
		c0.3-0.1,0.5-0.3,0.8-0.6s0.5-0.6,0.8-0.9c0.1-0.2,0.3-0.5,0.5-1H356.3L356.3,368.5z"/>
</g>
<polyline class="st4" points="36.2,471.7 36.2,401 486,401 486,471.7 "/>
<polyline class="st5" points="36.2,401 306,11.3 306,82 36.2,471.7 "/>
<line class="st5" x1="306" y1="82" x2="486" y2="471.7"/>
<line class="st5" x1="306" y1="11.3" x2="486" y2="401"/>
<polyline class="st6" points="36.8,401 306.5,307.2 306.5,377.9 36.8,471.7 "/>
<line class="st6" x1="306" y1="377.9" x2="486" y2="474.6"/>
<line class="st6" x1="306" y1="307.2" x2="486" y2="403.9"/>
<g>
	<g>
		<line class="st1" x1="35" y1="409.5" x2="35" y2="471"/>
		<g>
			<polygon points="25.5,427.2 28.3,428.2 35,409.8 41.7,428.2 44.6,427.2 35,401 			"/>
		</g>
	</g>
</g>
<text transform="matrix(1 0 0 1 8.4999 444.5366)" class="st7 st8">P</text>
<text transform="matrix(1 0 0 1 20.9688 452.0024)" class="st7 st9">N</text>
<line class="st10" x1="36.8" y1="471.7" x2="486" y2="471.7"/>
</svg>
