<?xml version="1.0" encoding="utf-8"?>
<!-- Generator: Adobe Illustrator 22.1.0, SVG Export Plug-In . SVG Version: 6.00 Build 0)  -->
<svg version="1.1" id="レイヤー_1" xmlns="http://www.w3.org/2000/svg" xmlns:xlink="http://www.w3.org/1999/xlink" x="0px"
	 y="0px" viewBox="0 0 500 232" style="enable-background:new 0 0 500 232;" xml:space="preserve">
<style type="text/css">
	.st0{fill:#FFFFFF;}
	.st1{fill:none;stroke:#FF0000;stroke-width:5;stroke-miterlimit:10;}
	.st2{fill:#FF0000;}
	.st3{fill:none;stroke:#000000;stroke-width:3;stroke-miterlimit:10;}
	.st4{fill:none;stroke:#000000;stroke-width:3;stroke-miterlimit:10;stroke-dasharray:12.4565,12.4565;}
	.st5{fill:none;stroke:#000000;stroke-miterlimit:10;}
	.st6{fill:none;stroke:#0000FF;stroke-width:3;stroke-miterlimit:10;}
	.st7{fill:#0000FF;}
	.st8{font-family:'TimesNewRomanPSMT';}
	.st9{font-size:27.224px;}
	.st10{fill:none;stroke:#0000FF;stroke-miterlimit:10;}
	.st11{fill:none;stroke:#FF0000;stroke-miterlimit:10;}
</style>
<g>
	<line class="st0" x1="36.2" y1="200.6" x2="486" y2="200.6"/>
	<g>
		<line class="st1" x1="36.2" y1="200.6" x2="477.4" y2="200.6"/>
		<g>
			<polygon class="st2" points="459.4,210.3 458.3,207.4 477.1,200.6 458.3,193.8 459.4,190.9 486,200.6 			"/>
		</g>
	</g>
</g>
<g>
	<g>
		<line class="st3" x1="306" y1="37" x2="306" y2="40.3"/>
		<line class="st4" x1="306" y1="47.1" x2="306" y2="193.8"/>
		<line class="st3" x1="306" y1="197.2" x2="306" y2="200.5"/>
	</g>
</g>
<rect x="306" y="192.2" class="st5" width="8.2" height="8.2"/>
<g>
	<path d="M316.3,21.7v5c0,1.1,0.1,1.8,0.4,2c0.3,0.4,0.8,0.6,1.5,0.6h0.7v0.5h-7.4v-0.5h0.6c0.7,0,1.3-0.2,1.6-0.7
		c0.2-0.3,0.3-0.9,0.3-1.9V15.6c0-1.1-0.1-1.8-0.3-2c-0.3-0.4-0.8-0.6-1.5-0.6h-0.6v-0.5h6.3c1.5,0,2.8,0.2,3.7,0.5s1.6,0.9,2.3,1.6
		c0.6,0.8,0.9,1.6,0.9,2.7c0,1.4-0.5,2.6-1.4,3.4c-0.9,0.9-2.2,1.3-3.9,1.3c-0.4,0-0.9,0-1.3-0.1C317.4,21.9,316.9,21.9,316.3,21.7z
		 M316.3,21c0.5,0.1,0.8,0.1,1.2,0.2s0.6,0.1,0.9,0.1c0.9,0,1.6-0.3,2.3-1c0.6-0.7,1-1.6,1-2.7c0-0.7-0.2-1.4-0.5-2.1
		c-0.3-0.6-0.7-1.1-1.3-1.4c-0.6-0.3-1.2-0.5-1.9-0.5c-0.4,0-1,0.1-1.7,0.2V21z"/>
</g>
<g>
	<path d="M5.2,188.9h5.5v0.5h-0.4c-0.3,0-0.6,0.1-0.8,0.2c-0.2,0.2-0.3,0.4-0.3,0.6c0,0.3,0.1,0.6,0.3,1.1l2.7,6.4l2.7-6.7
		c0.2-0.5,0.3-0.8,0.3-1.1c0-0.1,0-0.2-0.1-0.3c-0.1-0.1-0.2-0.2-0.4-0.3c-0.1,0-0.4-0.1-0.9-0.1v-0.3h3.8v0.5
		c-0.4,0-0.7,0.1-0.9,0.3c-0.3,0.3-0.6,0.7-0.8,1.3l-4.1,10h-0.5l-4.2-9.8c-0.2-0.5-0.4-0.8-0.5-1c-0.2-0.2-0.4-0.4-0.6-0.5
		c-0.1-0.1-0.4-0.1-0.9-0.2L5.2,188.9L5.2,188.9z"/>
	<path d="M18.3,195.9c0-0.9,0.1-1.6,0.4-2.2c0.2-0.6,0.5-1.1,0.9-1.5s0.7-0.7,1.1-0.8s0.8-0.3,1.1-0.3c0.2,0,0.5,0,0.7,0.1
		c0.3,0.1,0.5,0.2,0.8,0.3c0.3,0.2,0.5,0.4,0.8,0.6c0.2,0.3,0.5,0.6,0.6,0.9c0.2,0.4,0.3,0.8,0.4,1.2c0.1,0.5,0.2,1,0.2,1.6
		s-0.1,1.2-0.2,1.7s-0.3,0.9-0.5,1.3s-0.4,0.7-0.7,0.9c-0.2,0.2-0.5,0.4-0.8,0.6c-0.3,0.1-0.5,0.2-0.7,0.3s-0.4,0.1-0.6,0.1
		c-0.3,0-0.7-0.1-1.2-0.2s-0.8-0.4-1.2-0.8c-0.4-0.4-0.7-0.9-0.9-1.5C18.4,197.5,18.3,196.8,18.3,195.9z M20.1,195.9
		c0,0.2,0,0.4,0,0.6s0,0.6,0.1,0.9s0.1,0.6,0.2,1c0.1,0.3,0.2,0.6,0.3,0.9s0.3,0.5,0.5,0.7s0.4,0.3,0.7,0.3c0.3,0,0.5-0.1,0.7-0.3
		c0.2-0.2,0.3-0.4,0.5-0.7c0.1-0.3,0.2-0.6,0.3-0.9s0.1-0.7,0.1-1s0-0.6,0.1-0.8c0-0.2,0-0.4,0-0.5c0-0.4,0-0.9-0.1-1.4
		c0-0.5-0.1-1-0.2-1.4s-0.3-0.8-0.5-1.1s-0.5-0.4-0.9-0.4c-0.3,0-0.5,0.1-0.7,0.2s-0.3,0.3-0.5,0.5c-0.1,0.2-0.2,0.5-0.3,0.8
		c-0.1,0.3-0.1,0.6-0.2,0.9s-0.1,0.6-0.1,0.9S20.1,195.6,20.1,195.9z"/>
</g>
<g>
	<path d="M475.6,208.7h5.5v0.5h-0.4c-0.3,0-0.6,0.1-0.8,0.2c-0.2,0.2-0.3,0.4-0.3,0.6c0,0.3,0.1,0.6,0.3,1.1l2.7,6.4l2.7-6.7
		c0.2-0.5,0.3-0.8,0.3-1.1c0-0.1,0-0.2-0.1-0.3c-0.1-0.1-0.2-0.2-0.4-0.3c-0.1,0-0.4-0.1-0.9-0.1v-0.5h3.8v0.5
		c-0.4,0-0.7,0.1-0.9,0.3c-0.3,0.3-0.6,0.7-0.8,1.3l-4.1,10h-0.5l-4.2-9.8c-0.2-0.5-0.4-0.8-0.5-1c-0.2-0.2-0.4-0.4-0.6-0.5
		c-0.1-0.1-0.4-0.1-0.9-0.2L475.6,208.7L475.6,208.7z"/>
	<path d="M492.6,210.8h0.5v8.1c0,0.2,0,0.4,0.1,0.6c0.1,0.1,0.1,0.2,0.2,0.3s0.2,0.1,0.4,0.1c0.2,0,0.4,0,0.6,0v0.4h-4.2v-0.4
		c0.3,0,0.5,0,0.7,0s0.3-0.1,0.4-0.1c0.1-0.1,0.2-0.2,0.2-0.3s0.1-0.3,0.1-0.5v-5.5c0-0.4,0-0.7-0.1-0.9c0-0.2-0.1-0.3-0.3-0.3
		c-0.1,0-0.3,0-0.4,0.1s-0.3,0.1-0.4,0.2l-0.3-0.4L492.6,210.8z"/>
</g>
<g>
	<g>
		<line class="st6" x1="306" y1="37" x2="38.9" y2="199"/>
		<g>
			<path class="st7" d="M47.5,179.3c0.6,0.3,0.9,1.1,0.6,1.7l-8.7,17.7l19.7,0.4c0.7,0,1.3,0.6,1.3,1.3c0,0.7-0.6,1.3-1.3,1.3
				l-21.8-0.5c-0.4,0-0.8-0.2-1.1-0.6s-0.2-0.8-0.1-1.2l9.6-19.5c0.1-0.2,0.3-0.4,0.5-0.5C46.6,179.1,47.1,179.1,47.5,179.3z"/>
		</g>
	</g>
</g>
<text transform="matrix(1 0 0 1 142.501 104.9)" class="st7 st8 st9">A</text>
<g>
	<line class="st7" x1="143.4" y1="84.6" x2="163.6" y2="84.6"/>
	<g>
		<line class="st10" x1="143.4" y1="84.6" x2="161.5" y2="84.6"/>
		<g>
			<polygon class="st7" points="157.1,86.9 156.8,86.2 161.4,84.6 156.8,82.9 157.1,82.2 163.6,84.6 			"/>
		</g>
	</g>
</g>
<text transform="matrix(1 0 0 1 175.6676 227.6875)" class="st7 st8 st9">A’</text>
<g>
	<line class="st7" x1="180.2" y1="206.4" x2="200.4" y2="206.4"/>
	<g>
		<line class="st10" x1="180.2" y1="206.4" x2="198.3" y2="206.4"/>
		<g>
			<polygon class="st7" points="193.9,208.7 193.6,208 198.2,206.4 193.6,204.7 193.9,204 200.4,206.4 			"/>
		</g>
	</g>
</g>
<text transform="matrix(1 0 0 1 277.501 136.9)" class="st8 st9">d</text>
<text transform="matrix(0.583 0 0 0.583 291.1128 145.9654)" class="st8 st9">e</text>
<text transform="matrix(1 0 0 1 318.1 196.2996)" class="st8 st9">H</text>
<text transform="matrix(1 0 0 1 383.501 188.9)" class="st2 st8 st9">B</text>
<g>
	<g>
		<line class="st11" x1="384.4" y1="168.6" x2="402.5" y2="168.6"/>
		<g>
			<polygon class="st2" points="398.1,170.9 397.8,170.2 402.4,168.6 397.8,166.9 398.1,166.2 404.6,168.6 			"/>
		</g>
	</g>
</g>
<g>
	<line class="st0" x1="36.2" y1="200.7" x2="306" y2="200.7"/>
	<g>
		<line class="st6" x1="43.7" y1="200.7" x2="306" y2="200.7"/>
		<g>
			<polygon class="st7" points="59.3,209.1 60.2,206.6 43.9,200.7 60.2,194.8 59.3,192.3 36.2,200.7 			"/>
		</g>
	</g>
</g>
</svg>
